simulation
nRows=25
nColumns=15
endheader
time  TH_x TH_y TH_z SC_y  SC_z  SC_x  AC_y  AC_z  AC_x  GH_y  GH_z  GH_yy  EL_x  PS_y
0.000000  0.000000  0.000000  0.000000  -25.364953  4.458560  -4.125773  37.782448  9.922386  4.928605  -11.820818  -1.685791  58.612979  20.289326  78.575978
0.032121  0.000000  0.000000  0.000000  -25.255887  4.557826  -4.288979  37.976070  10.051520  5.031313  -11.733324  -1.849888  58.818703  20.594284  78.668897
0.064242  0.000000  0.000000  0.000000  -25.132425  4.656185  -4.408891  38.084762  10.152559  5.087803  -11.613174  -2.005670  58.955342  20.851710  78.729309
0.096364  0.000000  0.000000  0.000000  -24.998717  4.750665  -4.493392  38.124186  10.227823  5.108761  -11.476448  -2.149197  59.031231  21.058018  78.762557
0.128485  0.000000  0.000000  0.000000  -24.858912  4.838296  -4.541452  38.111257  10.274485  5.097403  -11.339229  -2.276529  59.054703  21.209623  78.773981
0.160606  0.000000  0.000000  0.000000  -24.717159  4.916108  -4.568475  38.060529  10.300066  5.069884  -11.217597  -2.383727  59.034089  21.302940  78.768922
0.192727  0.000000  0.000000  0.000000  -24.577607  4.981131  -4.572595  37.988991  10.301530  5.028466  -11.127635  -2.466851  58.977724  21.334383  78.752722
0.224848  0.000000  0.000000  0.000000  -24.444406  5.030393  -4.566454  37.911533  10.284805  4.987016  -11.085423  -2.521961  58.893939  21.300366  78.730722
0.256970  0.000000  0.000000  0.000000  -24.321704  5.060925  -4.553736  37.844309  10.250267  4.952276  -11.107043  -2.545116  58.791069  21.197305  78.708264
0.289091  0.000000  0.000000  0.000000  -24.213652  5.069756  -4.537552  37.803545  10.197908  4.930570  -11.208577  -2.532377  58.677446  21.021613  78.690689
0.321212  0.000000  0.000000  0.000000  -24.124397  5.053915  -4.528532  37.804407  10.132303  4.934289  -11.406106  -2.479804  58.561403  20.769706  78.683338
0.353333  0.000000  0.000000  0.000000  -24.057942  5.011075  -4.529240  37.861729  10.053214  4.968704  -11.712868  -2.383276  58.449138  20.438270  78.690459
0.385455  0.000000  0.000000  0.000000  -24.015865  4.949382  -4.539979  37.966142  9.960958  5.027119  -12.095800  -2.235717  58.312069  20.028442  78.698474
0.417576  0.000000  0.000000  0.000000  -23.997777  4.885503  -4.565430  38.087684  9.860080  5.098151  -12.484168  -2.027648  58.093319  19.544977  78.679305
0.449697  0.000000  0.000000  0.000000  -24.003229  4.836350  -4.600685  38.197093  9.749189  5.162607  -12.806146  -1.749523  57.735192  18.992733  78.604452
0.481818  0.000000  0.000000  0.000000  -24.031776  4.818838  -4.644075  38.264581  9.628789  5.204006  -12.989905  -1.391791  57.179989  18.376572  78.445416
0.513939  0.000000  0.000000  0.000000  -24.083032  4.849608  -4.693119  38.261128  9.498980  5.205991  -12.967002  -0.944423  56.372289  17.701750  78.175065
0.546061  0.000000  0.000000  0.000000  -24.159547  4.932430  -4.727724  38.194205  9.353783  5.173737  -12.828826  -0.374605  55.364229  16.992284  77.830874
0.578182  0.000000  0.000000  0.000000  -24.268015  5.052901  -4.697911  38.123441  9.175396  5.138999  -12.892435  0.382642  54.359811  16.298682  77.541534
0.610303  0.000000  0.000000  0.000000  -24.415446  5.195247  -4.553938  38.111925  8.946436  5.137815  -13.491935  1.394730  53.574505  15.673451  77.442630
0.642424  0.000000  0.000000  0.000000  -24.608845  5.343692  -4.244633  38.222669  8.648189  5.205524  -14.961430  2.729067  53.223783  15.169098  77.669744
0.674545  0.000000  0.000000  0.000000  -24.855213  5.482475  -3.720586  38.518057  8.262426  5.379149  -17.634399  4.452932  53.522706  14.838066  78.358219
0.706667  0.000000  0.000000  0.000000  -25.158205  5.601072  -2.958627  39.024133  7.786814  5.670110  -21.600130  6.581860  54.526403  14.707230  79.550295
0.738788  0.000000  0.000000  0.000000  -25.513071  5.702122  -2.026300  39.673755  7.275750  6.044405  -26.334163  9.001347  55.888030  14.739205  81.054202
0.770909  0.000000  0.000000  0.000000  -25.913762  5.790303  -1.004844  40.386103  6.792513  6.460587  -31.217145  11.576777  57.198590  14.886669  82.641988
